<svg xmlns="http://www.w3.org/2000/svg" version="1.1" xmlns:xlink="http://www.w3.org/1999/xlink" width="256px" height="255.428101318315px"><svg xmlns="http://www.w3.org/2000/svg" viewBox="12.6209 12.7055 74.7545 74.5875" width="256px" height="255.428101318315px"><g id="SvgjsG1005" transform="matrix(0.9999999999999999, 0, 0, 0.9999999999999999, 0, 0)"><path d="M 60.676 42.207 C 60.676 47.0429 57.4455 51.0937 53.0471 52.445 L 53.0471 84.168 C 53.0471 85.89460000000001 51.6487 87.293 49.9221 87.293 C 48.1955 87.293 46.7971 85.89460000000001 46.7971 84.168 L 46.7971 52.44500000000001 C 42.3987 51.097300000000004 39.1682 47.04270000000001 39.1682 42.20700000000001 C 39.1682 36.27730000000001 43.992399999999996 31.45300000000001 49.9222 31.45300000000001 C 55.852 31.45300000000001 60.676199999999994 36.27720000000001 60.676199999999994 42.20700000000001 L 60.676 42.207 Z" style="fill: rgb(113, 50, 202);"></path><path d="M 32.488299999999995 65.887 C 24.089899999999993 60.9886 18.871299999999994 51.914 18.871299999999994 42.207 C 18.871299999999994 32.4961 24.086099999999995 23.43 32.48029999999999 18.531000000000002 C 33.97249999999999 17.659910000000004 34.47639999999999 15.749800000000002 33.60529999999999 14.257600000000004 C 32.73810999999999 12.765400000000003 30.820099999999993 12.261500000000003 29.331899999999994 13.132600000000004 C 19.022899999999993 19.144300000000005 12.620899999999995 30.288600000000002 12.620899999999995 42.20660000000001 C 12.620899999999995 54.128600000000006 19.027099999999997 65.27260000000001 29.335899999999995 71.28460000000001 C 29.831989999999994 71.57366000000002 30.374999999999996 71.71038000000001 30.906199999999995 71.71038000000001 C 31.980399999999996 71.71038000000001 33.0273 71.15569000000002 33.6093 70.15958000000002 C 34.48039 68.66738000000002 33.97649 66.75338000000002 32.4843 65.88618000000002 L 32.488299999999995 65.887 Z" style="fill: rgb(242, 154, 174);"></path><path d="M 30.316399999999994 42.207 C 30.316399999999994 37.2929 32.53119999999999 32.7265 36.394499999999994 29.68 C 37.74999999999999 28.613599999999998 37.980399999999996 26.6448 36.91403 25.2933 C 35.847629999999995 23.9378 33.878829999999994 23.7074 32.52733 24.77377 C 27.15233 29.01597 24.066429999999997 35.36777 24.066429999999997 42.21177 C 24.066429999999997 49.14147 27.214829999999996 55.54777 32.707029999999996 59.789770000000004 C 33.277339999999995 60.227270000000004 33.94922999999999 60.44211000000001 34.61723 60.44211000000001 C 35.55082 60.44211000000001 36.47663 60.02414000000001 37.09383 59.22731000000001 C 38.148529999999994 57.86011000000001 37.89461 55.89921000000001 36.53133 54.844510000000014 C 32.58213 51.79761000000001 30.320429999999998 47.19221000000002 30.320429999999998 42.21151000000002 L 30.316399999999994 42.207 Z" style="fill: rgb(196, 123, 228);"></path><path d="M 70.66839999999999 13.133 C 69.1762 12.261909999999999 67.26219999999999 12.76972 66.395 14.258 C 65.52391 15.7502 66.02781 17.6642 67.52 18.531399999999998 C 75.9145 23.429799999999997 81.12899999999999 32.5044 81.12899999999999 42.20739999999999 C 81.12899999999999 51.91439999999999 75.91019999999999 60.99239999999999 67.51199999999999 65.88739999999999 C 66.01979999999999 66.75848999999998 65.51589999999999 68.66859999999998 66.38699999999999 70.16079999999998 C 66.96902999999999 71.15688999999998 68.01199999999999 71.71159999999998 69.09009999999999 71.71159999999998 C 69.62526 71.71159999999998 70.1643 71.57487999999998 70.6604 71.28581999999997 C 80.9694 65.27411999999997 87.3754 54.129819999999974 87.3754 42.20381999999997 C 87.3754 30.28181999999997 80.9731 19.14181999999997 70.6644 13.12981999999997 L 70.66839999999999 13.133 Z" style="fill: rgb(242, 154, 174);"></path><path d="M 75.934 42.207 C 75.934 35.3672 72.852 29.012 67.4731 24.769000000000002 C 66.1215 23.7026 64.1528 23.929160000000003 63.086400000000005 25.28853 C 62.02 26.64403 62.250460000000004 28.60883 63.60593000000001 29.675230000000003 C 67.46923000000001 32.72213 69.68403 37.28853 69.68403 42.20223 C 69.68403 47.18273 67.42233 51.78813 63.473130000000005 54.835229999999996 C 62.10593000000001 55.88992999999999 61.85593000000001 57.854729999999996 62.910630000000005 59.21803 C 63.527820000000006 60.01491 64.45363 60.432829999999996 65.38723 60.432829999999996 C 66.0552 60.432829999999996 66.72703 60.221889999999995 67.29743 59.78048999999999 C 72.78573 55.53828999999999 75.93803 49.13248999999999 75.93803 42.20249 L 75.934 42.207 Z" style="fill: rgb(196, 123, 228);"></path></g></svg><style>@media (prefers-color-scheme: light) { :root { filter: none; } }
@media (prefers-color-scheme: dark) { :root { filter: none; } }
</style></svg>